<svg width="20" height="20" viewBox="0 0 20 20" fill="none" xmlns="http://www.w3.org/2000/svg">
<mask id="path-1-inside-1_4034_21" fill="white">
<path d="M20 12.5392C19.3805 14.8603 17.933 16.8849 15.9219 18.2433C13.9107 19.6018 11.47 20.2037 9.04517 19.939C6.62034 19.6743 4.37315 18.5607 2.71377 16.8015C1.05439 15.0423 0.093491 12.7549 0.00647341 10.3567C-0.0805442 7.95846 0.71212 5.60944 2.23978 3.73839C3.76744 1.86733 5.92821 0.599022 8.32768 0.164965C10.7272 -0.269092 13.2053 0.160051 15.3098 1.37406C17.4143 2.58807 19.0048 4.50599 19.7909 6.77773C18.3501 7.89098 17.3461 8.22268 15.2136 8.31024C14.8013 7.11895 13.9673 6.11319 12.8637 5.47657C11.7601 4.83994 10.4605 4.6149 9.20227 4.84252C7.94399 5.07014 6.81088 5.73524 6.00978 6.71642C5.20867 7.6976 4.793 8.92942 4.83863 10.187C4.88427 11.4447 5.38816 12.6442 6.25834 13.5667C7.12851 14.4892 8.30694 15.0732 9.57852 15.212C10.8501 15.3508 12.13 15.0352 13.1847 14.3228C14.2393 13.6104 14.9983 12.5487 15.3232 11.3316C17.4097 11.3803 18.4325 11.6466 20 12.5392Z"/>
</mask>
<path d="M20 12.5392C19.3805 14.8603 17.933 16.8849 15.9219 18.2433C13.9107 19.6018 11.47 20.2037 9.04517 19.939C6.62034 19.6743 4.37315 18.5607 2.71377 16.8015C1.05439 15.0423 0.093491 12.7549 0.00647341 10.3567C-0.0805442 7.95846 0.71212 5.60944 2.23978 3.73839C3.76744 1.86733 5.92821 0.599022 8.32768 0.164965C10.7272 -0.269092 13.2053 0.160051 15.3098 1.37406C17.4143 2.58807 19.0048 4.50599 19.7909 6.77773C18.3501 7.89098 17.3461 8.22268 15.2136 8.31024C14.8013 7.11895 13.9673 6.11319 12.8637 5.47657C11.7601 4.83994 10.4605 4.6149 9.20227 4.84252C7.94399 5.07014 6.81088 5.73524 6.00978 6.71642C5.20867 7.6976 4.793 8.92942 4.83863 10.187C4.88427 11.4447 5.38816 12.6442 6.25834 13.5667C7.12851 14.4892 8.30694 15.0732 9.57852 15.212C10.8501 15.3508 12.13 15.0352 13.1847 14.3228C14.2393 13.6104 14.9983 12.5487 15.3232 11.3316C17.4097 11.3803 18.4325 11.6466 20 12.5392Z" fill="#FC155C"/>
<path d="M20 12.5392L29.6617 15.1179L31.6506 7.66626L24.9487 3.84955L20 12.5392ZM19.7909 6.77773L25.9049 14.6909L31.5909 10.2978L29.2411 3.50747L19.7909 6.77773ZM15.2136 8.31024L5.76342 11.5805L8.19491 18.6069L15.6238 18.3018L15.2136 8.31024ZM15.3232 11.3316L15.5566 1.33428L7.69043 1.15064L5.66141 8.75283L15.3232 11.3316ZM10.3382 9.96048C10.3402 9.95299 10.3426 9.94683 10.3447 9.94241C10.3467 9.93812 10.3481 9.93624 10.3479 9.93639C10.3479 9.93652 10.3419 9.94493 10.3244 9.95671L21.5194 26.53C25.5068 23.8366 28.4132 19.7958 29.6617 15.1179L10.3382 9.96048ZM10.3244 9.95671C10.2857 9.98288 10.2151 10.0073 10.1304 9.99801L7.95999 29.8799C12.7249 30.4001 17.5358 29.2208 21.5194 26.53L10.3244 9.95671ZM10.1304 9.99801C10.0466 9.98887 10.0007 9.95307 9.98816 9.93979L-4.56062 23.6632C-1.25439 27.1683 3.1941 29.3596 7.95999 29.8799L10.1304 9.99801ZM9.98816 9.93979C9.98285 9.93416 9.98572 9.93549 9.99007 9.94585C9.99448 9.95634 9.99914 9.97331 9.9999 9.99406L-9.98695 10.7193C-9.81122 15.5625 -7.87053 20.1543 -4.56062 23.6632L9.98816 9.93979ZM9.9999 9.99406C10.0007 10.0149 9.99726 10.0337 9.9927 10.0472C9.98819 10.0606 9.98371 10.0654 9.98585 10.0628L-5.50629 -2.58604C-8.55944 1.15342 -10.1627 5.87558 -9.98695 10.7193L9.9999 9.99406ZM9.98585 10.0628C9.99141 10.056 10.0278 10.0197 10.1078 10.0053L6.54761 -9.67533C1.82864 -8.82168 -2.45654 -6.32133 -5.50629 -2.58604L9.98585 10.0628ZM10.1078 10.0053C10.1893 9.9905 10.2652 10.0086 10.3129 10.0361L20.3067 -7.288C16.1454 -9.68851 11.265 -10.5287 6.54761 -9.67533L10.1078 10.0053ZM10.3129 10.0361C10.3346 10.0486 10.3444 10.0593 10.3472 10.0626C10.3498 10.0658 10.3454 10.0614 10.3408 10.048L29.2411 3.50747C27.6586 -1.06546 24.4716 -4.88536 20.3067 -7.288L10.3129 10.0361ZM13.6769 -1.13546C13.5631 -1.04759 13.6192 -1.10072 13.7982 -1.20326C14.0016 -1.31974 14.2756 -1.45008 14.5936 -1.55628C15.1951 -1.7572 15.4894 -1.70951 14.8033 -1.68134L15.6238 18.3018C17.0702 18.2424 18.9328 18.0805 20.9297 17.4135C23.041 16.7083 24.6468 15.663 25.9049 14.6909L13.6769 -1.13546ZM24.6637 5.03998C23.4551 1.54749 21.0246 -1.36023 17.8605 -3.18549L7.86682 14.1386C6.90991 13.5866 6.1475 12.6904 5.76342 11.5805L24.6637 5.03998ZM17.8605 -3.18549C14.7002 -5.00862 10.9984 -5.64469 7.42219 -4.99777L10.9823 14.6828C9.92273 14.8745 8.82001 14.6885 7.86682 14.1386L17.8605 -3.18549ZM7.42219 -4.99777C3.84442 -4.35056 0.586903 -2.45343 -1.73629 0.391992L13.7558 13.0408C13.0349 13.9239 12.0436 14.4908 10.9823 14.6828L7.42219 -4.99777ZM-1.73629 0.391992C-4.06288 3.24157 -5.28915 6.84654 -5.15479 10.5496L14.8321 9.82443C14.8752 11.0123 14.4802 12.1536 13.7558 13.0408L-1.73629 0.391992ZM-5.15479 10.5496C-5.02044 14.2523 -3.53676 17.7561 -1.01605 20.4284L13.5327 6.70498C14.3131 7.53227 14.789 8.63701 14.8321 9.82443L-5.15479 10.5496ZM-1.01605 20.4284C1.50097 23.0968 4.88069 24.7586 8.49334 25.1529L10.6637 5.27103C11.7332 5.38778 12.7561 5.8816 13.5327 6.70498L-1.01605 20.4284ZM8.49334 25.1529C12.105 25.5472 15.7551 24.6541 18.7821 22.6094L7.5872 6.03616C8.50495 5.41624 9.59519 5.15439 10.6637 5.27103L8.49334 25.1529ZM18.7821 22.6094C21.813 20.5621 24.0311 17.4842 24.985 13.9103L5.66141 8.75283C5.96556 7.61327 6.66557 6.65871 7.5872 6.03616L18.7821 22.6094ZM15.0898 21.3288C15.2557 21.3327 15.3779 21.338 15.4667 21.3433C15.5549 21.3485 15.601 21.3532 15.6145 21.3547C15.6269 21.356 15.6048 21.354 15.5558 21.3453C15.5056 21.3363 15.4361 21.322 15.3525 21.3004C15.2685 21.2787 15.1847 21.2533 15.105 21.2257C15.0259 21.1982 14.9643 21.1733 14.924 21.1558C14.8849 21.1388 14.8727 21.1319 14.8929 21.1422C14.9142 21.153 14.9643 21.1794 15.0512 21.2289L24.9487 3.84955C23.6986 3.13767 22.2085 2.41545 20.3599 1.9374C18.5851 1.47843 16.944 1.36668 15.5566 1.33428L15.0898 21.3288Z" fill="#FC155C" mask="url(#path-1-inside-1_4034_21)"/>
</svg>
